<svg width="70" height="76" viewBox="0 0 70 76" fill="none" xmlns="http://www.w3.org/2000/svg">
<path d="M0 10C0 4.47715 4.47715 0 10 0H60C65.5229 0 70 4.47715 70 10V66C70 71.5229 65.5229 76 60 76H10C4.47715 76 0 71.5229 0 66V10Z" fill="#1BA0AB"/>
<g clip-path="url(#clip0_1_121)">
<g clip-path="url(#clip1_1_121)">
<g clip-path="url(#clip2_1_121)">
<g clip-path="url(#clip3_1_121)">
<path d="M29.6705 38.3349C30.0644 38.2533 30.4761 38.0745 30.8644 37.7942C31.981 36.9865 32.4766 35.6603 31.9702 34.8305C31.4196 33.9279 29.9134 33.9886 28.756 35.0158C27.6492 35.9714 27.4131 36.9699 27.4131 38.0194C27.4131 38.7609 27.6503 40.0849 29.099 41.2347C29.7831 40.7062 30.5986 40.2714 31.5243 39.957L31.5365 39.9525C30.8253 39.6561 29.8981 39.0711 29.6705 38.3349ZM29.4918 35.7827C29.4918 35.4726 29.7389 35.2233 30.0436 35.2233C30.348 35.2233 30.5953 35.4738 30.5953 35.7838C30.5953 36.0939 30.348 36.3432 30.0436 36.3432C29.7389 36.3432 29.4918 36.0927 29.4918 35.7827Z" fill="white"/>
</g>
</g>
<g clip-path="url(#clip4_1_121)">
<g clip-path="url(#clip5_1_121)">
<path d="M42.607 38.0204C42.6037 36.9699 42.3687 35.9714 41.2609 35.0158C40.1044 33.9896 38.5972 33.9267 38.0465 34.8305C37.5412 35.6602 38.0355 36.9865 39.1521 37.7942C39.5406 38.0745 39.9522 38.2532 40.346 38.3348C40.2092 38.7773 39.7932 39.2275 39.1588 39.6071C38.2865 40.1278 37.8152 40.1922 32.2337 42.0456C30.1682 42.7474 28.939 44.142 28.939 45.7763C28.939 46.9404 29.5337 47.8385 30.3601 48.4962C30.8799 47.961 31.5287 47.4966 32.2868 47.1246C31.414 46.6833 31.1447 46.3489 31.1447 45.7763C31.1447 44.8311 33.034 44.2907 33.9056 44.0031V46.3953L36.1124 45.411V44.0042C36.9853 44.2933 38.8698 44.833 38.8698 45.7763C38.8698 47.3455 34.3763 48.2709 32.4644 49.5897C31.5365 50.2329 31.0376 51.0506 31.0376 52.0117C31.0376 52.5634 31.1017 53.2475 32.0704 53.9272C32.3451 54.1466 32.7268 53.8261 32.5484 53.5177C31.9082 52.2367 32.5879 51.5968 33.9077 51.0428V52.8943C33.9077 53.5034 34.402 53.9977 35.0111 53.9977C35.6202 53.9977 36.1145 53.5034 36.1145 52.8943V51.0439C37.3823 51.5757 38.1802 52.3272 37.4706 53.5177C37.2948 53.8201 37.6692 54.1493 37.9473 53.9272C38.8852 53.2165 38.9591 52.6074 38.9591 52.026C38.9591 51.1312 38.4693 50.2628 37.5401 49.5974C39.4182 48.9188 41.0799 47.7768 41.0799 45.7785C41.0799 44.3981 40.2028 43.1888 38.6867 42.423C39.3949 42.1681 39.7513 41.9971 40.2247 41.7147C42.2981 40.4755 42.607 38.8679 42.607 38.0204ZM39.9743 36.3432C39.6697 36.3432 39.4226 36.0927 39.4226 35.7827C39.4226 35.4726 39.6697 35.2221 39.9743 35.2221C40.2787 35.2221 40.526 35.4726 40.526 35.7827C40.526 36.0927 40.2788 36.3432 39.9743 36.3432Z" fill="white"/>
</g>
</g>
<g clip-path="url(#clip6_1_121)">
<g clip-path="url(#clip7_1_121)">
<path d="M50.4477 24.209H42.891C41.4085 24.209 40.2961 24.8643 39.3391 25.8213C38.2994 26.861 37.7588 29.1722 36.1033 29.1722V26.1076C36.7603 25.7253 37.2067 25.0217 37.2067 24.2068C37.2067 22.988 36.2188 22 34.9999 22C33.7811 22 32.7931 22.988 32.7931 24.2068C32.7931 25.0216 33.2396 25.7253 33.8965 26.1076V39.2579C34.5775 39.0406 35.3249 38.8012 36.1033 38.5513V33.0242C36.5821 32.784 36.9683 32.3957 37.2052 31.9151C37.589 32.571 38.3186 33.0363 39.1319 33.0363C39.9568 33.0363 40.6674 32.5783 41.0461 31.908C42.3387 33.2007 44.7414 33.2256 46.034 31.933L44.1589 30.0579L45.0191 30.4142C46.7081 31.1138 48.6445 30.3117 49.3443 28.6227L46.6804 27.5193C49.261 27.5192 50.4477 25.8999 50.4477 24.209Z" fill="white"/>
</g>
</g>
<g clip-path="url(#clip8_1_121)">
<g clip-path="url(#clip9_1_121)">
<path d="M30.6607 25.8213C29.7037 24.8643 28.5913 24.209 27.1088 24.209H19.5521C19.5521 25.8998 20.7388 27.5192 23.3194 27.5192L20.6555 28.6226C21.3552 30.3117 23.2917 31.1137 24.9807 30.4142L25.8409 30.0578L23.9658 31.9329C25.2584 33.2257 27.6611 33.2008 28.9538 31.908C29.3324 32.5783 30.043 33.0363 30.8679 33.0363C30.876 33.0363 30.8842 33.0362 30.8923 33.0361C31.9705 33.0239 32.7946 32.05 32.7946 30.9718V28.7519C31.9249 28.0383 31.4268 26.5874 30.6607 25.8213Z" fill="white"/>
</g>
</g>
</g>
</g>
<defs>
<clipPath id="clip0_1_121">
<rect width="32" height="32" fill="white" transform="translate(19 22)"/>
</clipPath>
<clipPath id="clip1_1_121">
<rect width="32" height="32" fill="white" transform="translate(19 22)"/>
</clipPath>
<clipPath id="clip2_1_121">
<rect width="4.75568" height="7.03818" fill="white" transform="translate(27.4131 34.1965)"/>
</clipPath>
<clipPath id="clip3_1_121">
<rect width="4.75568" height="7.03818" fill="white" transform="translate(27.4131 34.1965)"/>
</clipPath>
<clipPath id="clip4_1_121">
<rect width="13.668" height="19.8036" fill="white" transform="translate(28.939 34.1964)"/>
</clipPath>
<clipPath id="clip5_1_121">
<rect width="13.668" height="19.8036" fill="white" transform="translate(28.939 34.1964)"/>
</clipPath>
<clipPath id="clip6_1_121">
<rect width="17.6546" height="17.2579" fill="white" transform="translate(32.7931 22)"/>
</clipPath>
<clipPath id="clip7_1_121">
<rect width="17.6546" height="17.2579" fill="white" transform="translate(32.7931 22)"/>
</clipPath>
<clipPath id="clip8_1_121">
<rect width="13.2425" height="8.8273" fill="white" transform="translate(19.5521 24.209)"/>
</clipPath>
<clipPath id="clip9_1_121">
<rect width="13.2425" height="8.8273" fill="white" transform="translate(19.5521 24.209)"/>
</clipPath>
</defs>
</svg>
